# xmcd CD database file
#
# Track frame offsets:
#	150
#	33103
#	91891
#	144823
#	192498
#	242202
#
# Disc length: 3932 seconds
#
# Revision: 0
# Processed by: cddbd v1.5.2PL0 Copyright (c) Steve Scherf et al.
# Submitted via: CDex 1.70beta2
#
DISCID=450f5a06
DTITLE=Benjy Wertheimer - Voice of the Esraj
DYEAR=2006
DGENRE=New Age
TTITLE0=Om Namah Shivaya
TTITLE1=Devotion
TTITLE2=Rememberance
TTITLE3=Faith
TTITLE4=Balance
TTITLE5=Ahimsa
EXTD=YEAR: 2006
EXTT0=
EXTT1=
EXTT2=
EXTT3=
EXTT4=
EXTT5=
PLAYORDER=
